<svg width="109" height="97" viewBox="0 0 109 97" fill="none" xmlns="http://www.w3.org/2000/svg">
<g filter="url(#filter0_dd_83_1624)">
<path d="M24 38.5C24 23.8645 35.8645 12 50.5 12C65.1355 12 77 23.8645 77 38.5C77 53.1355 65.1355 65 50.5 65C35.8645 65 24 53.1355 24 38.5Z" fill="#FF3D71"/>
<path fill-rule="evenodd" clip-rule="evenodd" d="M61.2917 36.9583H52.0417V27.7083C52.0417 26.8558 51.3511 26.1666 50.5001 26.1666C49.6491 26.1666 48.9584 26.8558 48.9584 27.7083V36.9583H39.7084C38.8574 36.9583 38.1667 37.6474 38.1667 38.5C38.1667 39.3525 38.8574 40.0416 39.7084 40.0416H48.9584V49.2916C48.9584 50.1442 49.6491 50.8333 50.5001 50.8333C51.3511 50.8333 52.0417 50.1442 52.0417 49.2916V40.0416H61.2917C62.1427 40.0416 62.8334 39.3525 62.8334 38.5C62.8334 37.6474 62.1427 36.9583 61.2917 36.9583Z" fill="white"/>
<path d="M50.5 61C38.0736 61 28 50.9264 28 38.5H20C20 55.3447 33.6553 69 50.5 69V61ZM73 38.5C73 50.9264 62.9264 61 50.5 61V69C67.3447 69 81 55.3447 81 38.5H73ZM50.5 16C62.9264 16 73 26.0736 73 38.5H81C81 21.6553 67.3447 8 50.5 8V16ZM50.5 8C33.6553 8 20 21.6553 20 38.5H28C28 26.0736 38.0736 16 50.5 16V8Z" fill="#DB2C66"/>
</g>
<defs>
<filter id="filter0_dd_83_1624" x="-8" y="0" width="117" height="117" filterUnits="userSpaceOnUse" color-interpolation-filters="sRGB">
<feFlood flood-opacity="0" result="BackgroundImageFix"/>
<feColorMatrix in="SourceAlpha" type="matrix" values="0 0 0 0 0 0 0 0 0 0 0 0 0 0 0 0 0 0 127 0" result="hardAlpha"/>
<feOffset dy="20"/>
<feGaussianBlur stdDeviation="16"/>
<feColorMatrix type="matrix" values="0 0 0 0 0.0352941 0 0 0 0 0.117647 0 0 0 0 0.258824 0 0 0 0.25 0"/>
<feBlend mode="normal" in2="BackgroundImageFix" result="effect1_dropShadow_83_1624"/>
<feColorMatrix in="SourceAlpha" type="matrix" values="0 0 0 0 0 0 0 0 0 0 0 0 0 0 0 0 0 0 127 0" result="hardAlpha"/>
<feOffset/>
<feGaussianBlur stdDeviation="0.5"/>
<feColorMatrix type="matrix" values="0 0 0 0 0.0352941 0 0 0 0 0.117647 0 0 0 0 0.258824 0 0 0 0.31 0"/>
<feBlend mode="normal" in2="effect1_dropShadow_83_1624" result="effect2_dropShadow_83_1624"/>
<feBlend mode="normal" in="SourceGraphic" in2="effect2_dropShadow_83_1624" result="shape"/>
</filter>
</defs>
</svg>
